<svg fill="#FFF" xmlns="http://www.w3.org/2000/svg" viewBox="0 0 128 128" width="256" height="256"><path d="M101.333 16H26.667A10.667 10.667 0 0 0 16 26.667v74.667a10.667 10.667 0 0 0 10.667 10.667h74.667a10.667 10.667 0 0 0 10.667-10.667V26.667A10.667 10.667 0 0 0 101.334 16M48 90.667H34.544V53.334H48zm-6.965-44.176c-4.112 0-6.859-2.741-6.859-6.4s2.741-6.4 7.312-6.4c4.112 0 6.859 2.741 6.859 6.4s-2.741 6.4-7.312 6.4M96 90.667H82.976V70.262c0-5.643-3.472-6.944-4.773-6.944s-5.643.869-5.643 6.944v20.405H59.104V53.334H72.56v5.211c1.733-3.04 5.205-5.211 11.717-5.211S96 58.544 96 70.261z"/></svg>
