<svg fill="#FFF" xmlns="http://www.w3.org/2000/svg" viewBox="21.333 21.333 213.333 213.333" width="256" height="256"><path d="M128 21.333C69.184 21.333 21.333 69.184 21.333 128S69.184 234.667 128 234.667 234.667 186.816 234.667 128 186.816 21.333 128 21.333m0 16c50.171 0 90.667 40.496 90.667 90.667a90.56 90.56 0 0 1-64 86.677v-27.28c0-10.187-5.867-18.923-14.352-23.275a53.333 42.667 0 0 0 32.683-64.277c2.368-7.285 5.013-20.053-1.269-30.107-12.107 0-19.915 8.299-23.643 13.461A53.333 42.667 0 0 0 128 80a53.333 42.667 0 0 0-20.107 3.168c-3.733-5.163-11.541-13.429-23.627-13.429-7.2 11.536-2.747 23.941-.363 29.003a53.333 42.667 0 0 0 31.733 65.413c-6.965 3.589-12.187 10.107-13.781 18.011h-7.013c-6.917 0-9.6-2.811-13.344-7.552-3.691-4.741-7.659-7.925-12.427-9.248-2.571-.272-4.304 1.68-2.064 3.413 7.573 5.152 8.091 13.589 11.125 19.109 2.763 4.971 8.427 9.445 14.827 9.445h8.374v17.344a90.56 90.56 0 0 1-64-86.677c0-50.171 40.496-90.667 90.667-90.667"/></svg>
