<svg width="256" height="256" viewBox="0 0 256 256" fill="none" xmlns="http://www.w3.org/2000/svg"><path fill="#fff" d="M44.912 0h166.176A44.91 44.91 0 0 1 256 44.912v166.176A44.91 44.91 0 0 1 211.088 256H44.912A44.91 44.91 0 0 1 0 211.088V44.912A44.91 44.91 0 0 1 44.912 0"/><path d="M256 176.184v23.25q-2.19.212-4.5.213c-27.485 0-42.959-22.893-43.626-51.539a83 83 0 0 1 .012-3.301q.024-1.023.076-2.038c.017-.362.034-.702.061-1.081s.054-.758.086-1.137c.99-12.648 5.061-23.902 11.781-32.23 4.175-5.17 9.191-9.108 14.88-11.742 4.997-2.516 12.02-3.904 17.745-3.904h.247q1.627 0 3.235.108v6.397a14.7 14.7 0 0 0-3.65-.5c-11.579.239-18.479 14.107-19.338 33.323H256v5.415h-23.507l-.007.005c-1.06 18.723 9.188 34.545 23.515 38.762" fill="#000"/><path d="m209.029 61.156.202-.044v-1.563h-41.227l-38.281 89.972-38.281-89.972H47.015v1.563l.2.044c7.525 1.698 11.345 4.231 11.345 13.367v106.945c0 9.135-3.835 11.668-11.36 13.367l-.2.044v1.568h30.142v-1.563l-.199-.044c-7.525-1.698-11.346-4.231-11.346-13.367V80.726l49.176 115.721h2.789L168.17 77.499v106.615c-.645 7.215-4.431 9.443-11.245 10.981l-.202.047v1.551h52.507v-1.551l-.202-.047c-6.821-1.538-10.698-3.766-11.343-10.981l-.035-109.591h.035c0-9.135 3.82-11.668 11.343-13.367" fill="#000"/></svg>
